<svg xmlns="http://www.w3.org/2000/svg" width="65.125" height="70.109" viewBox="0 0 65.125 70.109">
  <g id="Group_236" data-name="Group 236" transform="translate(-409.698 -209.521)">
    <g id="Group_234" data-name="Group 234">
      <path id="Path_61" data-name="Path 61" d="M421.605,279.63a1.849,1.849,0,0,1-.926-3.449l49.667-28.675a1.561,1.561,0,0,0,0-2.7l-54.33-31.368a1.561,1.561,0,0,0-2.342,1.352v54.857a1.848,1.848,0,0,1-3.7,0V214.786a5.258,5.258,0,0,1,7.886-4.553l54.33,31.368a5.257,5.257,0,0,1,0,9.106l-49.667,28.675A1.838,1.838,0,0,1,421.605,279.63Z" fill="#1e1e1e"/>
    </g>
    <g id="Group_235" data-name="Group 235">
      <circle id="Ellipse_31" data-name="Ellipse 31" cx="2.128" cy="2.128" r="2.128" transform="translate(409.698 273.526)" fill="#00d36c"/>
    </g>
  </g>
</svg>
